<?xml version="1.0" encoding="UTF-8" standalone="no"?>
<svg
   width="48"
   height="48"
   viewBox="0 0 48 48"
   version="1.1"
   xml:space="preserve"
   style="clip-rule:evenodd;fill-rule:evenodd;stroke-linejoin:round;stroke-miterlimit:1.41421"
   id="svg151"
   sodipodi:docname="appIcon.svg"
   inkscape:version="1.1.2 (b8e25be8, 2022-02-05)"
   xmlns:inkscape="http://www.inkscape.org/namespaces/inkscape"
   xmlns:sodipodi="http://sodipodi.sourceforge.net/DTD/sodipodi-0.dtd"
   xmlns="http://www.w3.org/2000/svg"
   xmlns:svg="http://www.w3.org/2000/svg"><defs
   id="defs155" /><sodipodi:namedview
   id="namedview153"
   pagecolor="#505050"
   bordercolor="#eeeeee"
   borderopacity="1"
   inkscape:pageshadow="0"
   inkscape:pageopacity="0"
   inkscape:pagecheckerboard="0"
   showgrid="false"
   inkscape:zoom="0.97035431"
   inkscape:cx="144.2772"
   inkscape:cy="226.20603"
   inkscape:window-width="1383"
   inkscape:window-height="1027"
   inkscape:window-x="49"
   inkscape:window-y="25"
   inkscape:window-maximized="0"
   inkscape:current-layer="svg151" />
    <g
   transform="matrix(0.08051386,0,0,0.08051386,8.3243134e-5,3.0965904e-5)"
   id="g149">
        <g
   id="Logo"
   transform="matrix(0.370481,0,0,0.370481,-878.167,-145.941)">
            <rect
   x="2370.3401"
   y="393.922"
   width="1609.1801"
   height="1609.1801"
   style="fill:none"
   id="rect99" />
            <clipPath
   id="_clip1">
                <rect
   x="2370.3401"
   y="393.922"
   width="1609.1801"
   height="1609.1801"
   id="rect101" />
            </clipPath>
            <g
   clip-path="url(#_clip1)"
   id="g146">
                <g
   id="g144">
                    <g
   id="g109">
                        <g
   id="Background"
   transform="matrix(1.43378,0,0,1.43378,1505.71,-734.25)">
                            <path
   d="m 1725.38,1016.65 c 0,-126.83 -102.97,-229.798 -229.8,-229.798 H 832.838 c -126.828,0 -229.797,102.968 -229.797,229.798 v 662.74 c 0,126.83 102.969,229.79 229.797,229.79 h 662.742 c 126.83,0 229.8,-102.96 229.8,-229.79 z"
   style="fill:#cd1b00"
   id="path104" />
                            <path
   d="m 1725.38,1016.65 c 0,-126.83 -102.97,-229.798 -229.8,-229.798 H 832.838 c -126.828,0 -229.797,102.968 -229.797,229.798 v 662.74 c 0,126.83 102.969,229.79 229.797,229.79 h 662.742 c 126.83,0 229.8,-102.96 229.8,-229.79 z"
   style="fill:#cd1b00"
   id="path106" />
                        </g>
                    </g>
                    <g
   id="Acrobat"
   transform="matrix(42.0597,0,0,42.0597,2530.56,386.979)">
                        <path
   d="m 15.372,4.377 c 0.452,0.213 0.358,0.489 0.219,1.793 -0.142,1.345 -0.618,3.802 -1.535,6.219 -0.918,2.413 -2.28,4.784 -3.467,6.539 -1.186,1.756 -2.201,2.897 -2.975,3.556 -0.777,0.659 -1.314,0.835 -1.665,0.893 -0.348,0.058 -0.506,0 -0.6,-0.177 -0.094,-0.176 -0.127,-0.466 -0.046,-0.82 0.079,-0.35 0.268,-0.76 0.804,-1.285 0.541,-0.527 1.426,-1.172 2.661,-1.771 1.235,-0.6 2.817,-1.156 4.116,-1.537 1.299,-0.379 2.311,-0.585 3.197,-0.746 0.888,-0.162 1.647,-0.277 2.391,-0.337 0.744,-0.056 1.474,-0.056 2.186,0 0.712,0.06 1.408,0.175 2.011,0.323 0.6,0.146 1.108,0.321 1.551,0.601 0.442,0.276 0.823,0.657 1.012,1.083 0.192,0.423 0.192,0.893 0.033,1.228 -0.158,0.337 -0.476,0.541 -0.839,0.66 -0.364,0.115 -0.775,0.144 -1.267,0 -0.49,-0.148 -1.062,-0.47 -1.662,-0.894 C 20.896,19.28 20.262,18.753 19.44,17.934 18.616,17.115 17.602,16.004 16.748,14.921 15.894,13.838 15.195,12.785 14.72,11.892 14.247,10.999 13.993,10.268 13.787,9.537 13.581,8.804 13.423,8.073 13.36,7.415 13.297,6.757 13.326,6.17 13.39,5.701 13.453,5.235 13.55,4.881 13.707,4.646 13.865,4.416 14.088,4.296 14.246,4.238 14.404,4.18 14.5,4.18 14.594,4.165 c 0.094,-0.015 0.188,-0.044 0.333,0 0.138,0.042 0.321,0.154 0.504,0.268"
   style="fill:none;fill-rule:nonzero;stroke:#ffffff;stroke-width:1.4px"
   id="path111" />
                    </g>
                    <g
   transform="matrix(1.48556,0,0,1.48556,1074.83,-682.604)"
   id="g142">
                        <g
   transform="matrix(200,0,0,200,1046.78,1656.3)"
   id="g116">
                            <path
   d="m 0.014,-0.296 0.57,-0.224 v 0.088 l -0.466,0.177 0.466,0.176 v 0.088 l -0.57,-0.224 z"
   style="fill:#ffffff;fill-rule:nonzero"
   id="path114" />
                        </g>
                        <g
   transform="matrix(200,0,0,200,1163.58,1656.3)"
   id="g120">
                            <path
   d="m 0.074,-0.717 h 0.139 l 0.206,0.606 0.205,-0.606 H 0.761 V 0 H 0.669 v -0.423 c 0,-0.015 0,-0.039 0.001,-0.073 0.001,-0.034 0.001,-0.07 0.001,-0.109 L 0.466,0 H 0.37 L 0.164,-0.605 v 0.022 c 0,0.018 0,0.044 0.001,0.08 0.001,0.036 0.002,0.063 0.002,0.08 V 0 H 0.074 Z"
   style="fill:#ffffff;fill-rule:nonzero"
   id="path118" />
                        </g>
                        <g
   transform="matrix(200,0,0,200,1330.18,1656.3)"
   id="g124">
                            <path
   d="m 0.282,-0.535 c 0.037,0 0.073,0.009 0.108,0.026 0.035,0.018 0.061,0.04 0.08,0.068 0.017,0.026 0.029,0.057 0.035,0.092 0.005,0.024 0.008,0.063 0.008,0.116 H 0.129 c 0.002,0.053 0.015,0.095 0.038,0.127 0.023,0.032 0.06,0.048 0.109,0.048 0.046,0 0.082,-0.015 0.11,-0.045 0.015,-0.018 0.026,-0.038 0.033,-0.061 H 0.505 C 0.503,-0.145 0.496,-0.123 0.483,-0.1 0.47,-0.076 0.455,-0.057 0.439,-0.042 0.413,-0.016 0.38,0.002 0.34,0.011 0.319,0.016 0.295,0.019 0.269,0.019 0.203,0.019 0.148,-0.005 0.103,-0.052 0.058,-0.1 0.035,-0.166 0.035,-0.251 c 0,-0.084 0.023,-0.153 0.069,-0.205 0.045,-0.052 0.105,-0.079 0.178,-0.079 z m 0.14,0.232 C 0.419,-0.341 0.41,-0.372 0.397,-0.395 0.373,-0.437 0.333,-0.458 0.277,-0.458 c -0.041,0 -0.074,0.015 -0.102,0.044 -0.027,0.029 -0.042,0.066 -0.043,0.111 z"
   style="fill:#ffffff;fill-rule:nonzero"
   id="path122" />
                        </g>
                        <g
   transform="matrix(200,0,0,200,1441.41,1656.3)"
   id="g128">
                            <path
   d="m 0.082,-0.669 h 0.089 v 0.146 h 0.083 v 0.072 H 0.171 v 0.341 c 0,0.018 0.006,0.031 0.018,0.037 0.007,0.003 0.019,0.005 0.035,0.005 0.004,0 0.008,0 0.013,0 0.005,0 0.011,-0.001 0.017,-0.001 V 0 C 0.244,0.003 0.234,0.005 0.223,0.006 0.212,0.008 0.2,0.008 0.188,0.008 0.146,0.008 0.119,-0.002 0.104,-0.023 0.089,-0.044 0.082,-0.071 0.082,-0.105 V -0.451 H 0.011 v -0.072 h 0.071 z"
   style="fill:#ffffff;fill-rule:nonzero"
   id="path126" />
                        </g>
                        <g
   transform="matrix(200,0,0,200,1496.98,1656.3)"
   id="g132">
                            <path
   d="m 0.132,-0.139 c 0,0.025 0.009,0.045 0.028,0.06 0.018,0.015 0.04,0.022 0.066,0.022 0.031,0 0.06,-0.007 0.089,-0.022 0.049,-0.023 0.074,-0.062 0.074,-0.116 v -0.071 c -0.011,0.007 -0.025,0.012 -0.042,0.017 -0.017,0.005 -0.033,0.008 -0.05,0.01 l -0.053,0.007 c -0.032,0.004 -0.056,0.01 -0.072,0.02 -0.027,0.015 -0.04,0.039 -0.04,0.073 z m 0.213,-0.178 c 0.02,-0.002 0.033,-0.011 0.04,-0.025 0.004,-0.008 0.006,-0.019 0.006,-0.034 0,-0.03 -0.011,-0.052 -0.032,-0.065 -0.021,-0.014 -0.052,-0.02 -0.091,-0.02 -0.046,0 -0.079,0.012 -0.098,0.037 -0.011,0.013 -0.018,0.034 -0.021,0.061 H 0.067 c 0.002,-0.065 0.022,-0.11 0.063,-0.135 0.04,-0.025 0.086,-0.038 0.14,-0.038 0.061,0 0.111,0.012 0.149,0.036 0.039,0.023 0.058,0.059 0.058,0.109 v 0.301 c 0,0.009 0.001,0.017 0.005,0.022 0.004,0.006 0.012,0.008 0.024,0.008 0.004,0 0.008,0 0.013,0 0.005,-0.001 0.01,-0.002 0.016,-0.003 V 0.002 C 0.521,0.006 0.511,0.009 0.503,0.01 0.496,0.011 0.486,0.011 0.474,0.011 0.444,0.011 0.422,0 0.408,-0.021 0.401,-0.032 0.396,-0.049 0.393,-0.069 0.375,-0.046 0.349,-0.026 0.316,-0.008 0.282,0.009 0.245,0.018 0.205,0.018 0.157,0.018 0.117,0.003 0.086,-0.027 0.055,-0.056 0.04,-0.093 0.04,-0.137 c 0,-0.049 0.015,-0.086 0.045,-0.113 0.031,-0.027 0.07,-0.043 0.12,-0.049 z"
   style="fill:#ffffff;fill-rule:nonzero"
   id="path130" />
                        </g>
                        <g
   transform="matrix(200,0,0,200,1608.21,1656.3)"
   id="g136">
                            <path
   d="M 0.228,-0.717 H 0.302 L 0.074,0 H 0 Z"
   style="fill:#ffffff;fill-rule:nonzero"
   id="path134" />
                        </g>
                        <g
   transform="matrix(200,0,0,200,1663.77,1656.3)"
   id="g140">
                            <path
   d="M 0.584,-0.214 0.014,0.009 V -0.079 L 0.48,-0.255 0.014,-0.432 V -0.52 l 0.57,0.224 z"
   style="fill:#ffffff;fill-rule:nonzero"
   id="path138" />
                        </g>
                    </g>
                </g>
            </g>
        </g>
    </g>
</svg>
